<svg width="31" height="31" viewBox="0 0 31 31" fill="none" xmlns="http://www.w3.org/2000/svg">
<path d="M23.3125 17.6159V25.5H22.0808V17.6159C22.0813 17.4192 22.0419 17.2243 21.9649 17.0429C21.888 16.8614 21.7751 16.697 21.6329 16.5594C21.3481 16.2775 20.9621 16.1183 20.559 16.1166H17.5053V25.5H16.2533V11.3469C16.2533 10.9466 16.0924 10.5627 15.806 10.2796C15.5197 9.99657 15.1313 9.83754 14.7264 9.83754H10.441C10.036 9.83754 9.64764 9.99657 9.3613 10.2796C9.07495 10.5627 8.91409 10.9466 8.91409 11.3469V25.5H7.6875V11.3469C7.6875 10.625 7.9776 9.9327 8.49397 9.42224C9.01034 8.91177 9.7107 8.625 10.441 8.625H14.7315C15.4622 8.625 16.1631 8.91161 16.6803 9.42193C17.1974 9.93225 17.4887 10.6246 17.49 11.3469V14.894H20.5438C20.9066 14.892 21.2663 14.961 21.6022 15.0969C21.938 15.2328 22.2433 15.4329 22.5006 15.6859C22.7579 15.9388 22.9621 16.2396 23.1015 16.5708C23.2408 16.902 23.3125 17.2572 23.3125 17.6159Z" fill="#606060"/>
<path d="M12.0625 13H10.8125V14.875H12.0625V13Z" fill="#445E91"/>
<path d="M14.5625 13H13.3125V14.875H14.5625V13Z" fill="#445E91"/>
<path d="M12.0625 16.75H10.8125V18.625H12.0625V16.75Z" fill="#445E91"/>
<path d="M14.5625 16.75H13.3125V18.625H14.5625V16.75Z" fill="#445E91"/>
<path d="M12.0625 21.125H10.8125V23H12.0625V21.125Z" fill="#445E91"/>
<path d="M14.5625 21.125H13.3125V23H14.5625V21.125Z" fill="#445E91"/>
<path d="M20.1875 18H18.9375V19.875H20.1875V18Z" fill="#445E91"/>
<path d="M20.1875 21.75H18.9375V23.625H20.1875V21.75Z" fill="#445E91"/>
<path d="M17.0625 24.25H8.3125V25.5H17.0625V24.25Z" fill="#606060"/>
<path d="M23.3125 24.25H15.1875V25.5H23.3125V24.25Z" fill="#606060"/>
</svg>
