<svg width="31" height="31" viewBox="0 0 31 31" fill="none" xmlns="http://www.w3.org/2000/svg">
<g clip-path="url(#clip0_1_1300)">
<path d="M19.9291 22.8333H19.8295H19.6686H19.5H20.1667C20.09 22.8333 20.0057 22.8333 19.9291 22.8333Z" fill="#606060" stroke="white" stroke-width="0.52" stroke-miterlimit="10"/>
<path d="M19.9291 22.8333H19.8295H19.6686H19.5H20.1667C20.09 22.8333 20.0057 22.8333 19.9291 22.8333Z" fill="#606060" stroke="white" stroke-width="0.52" stroke-miterlimit="10"/>
<path d="M19.9291 22.8333H19.8295H19.6686H19.5H20.1667C20.09 22.8333 20.0057 22.8333 19.9291 22.8333Z" fill="#606060" stroke="white" stroke-width="0.52" stroke-miterlimit="10"/>
<path d="M24.1639 15.9595C24.1605 15.9182 24.1605 15.8767 24.1639 15.8353C24.1676 15.7963 24.1676 15.757 24.1639 15.718C24.076 13.762 23.4157 11.8748 22.2647 10.2905C21.1138 8.70625 19.5229 7.49458 17.6894 6.80581C15.8559 6.11704 13.8604 5.98149 11.9505 6.41596C10.0407 6.85043 8.30041 7.8358 6.94562 9.24986C5.59083 10.6639 4.68112 12.4444 4.32934 14.3706C3.97755 16.2967 4.19916 18.2837 4.96668 20.0851C5.73421 21.8865 7.01387 23.423 8.64695 24.5041C10.28 25.5851 12.1947 26.1632 14.1534 26.1665C15.5817 26.1742 16.9948 25.8729 18.2957 25.2831L18.5511 25.1658L18.7858 25.0416C18.9101 24.9795 19.0275 24.9174 19.1379 24.8484L19.345 24.731L19.5383 24.6068H17.8331C17.69 24.6088 17.5493 24.5703 17.4272 24.4958C17.305 24.4214 17.2064 24.3139 17.1427 24.1858L17.0253 24.2273H16.9149L16.7285 24.2894H16.618L16.5007 24.3239C14.7929 24.8081 12.9767 24.7496 11.3037 24.1565C9.63058 23.5635 8.18331 22.4652 7.16218 21.0136C6.14105 19.5621 5.59657 17.8292 5.6041 16.0547C5.61163 14.2802 6.17081 12.552 7.20422 11.1092C8.23764 9.66639 9.69418 8.58041 11.3722 8.00156C13.0503 7.42272 14.8668 7.37964 16.5705 7.8783C18.2741 8.37695 19.7805 9.39267 20.8812 10.7849C21.9819 12.1771 22.6224 13.8769 22.7141 15.649V15.7663C22.7175 15.8076 22.7175 15.8492 22.7141 15.8905V16.3184H24.1639V15.9595Z" fill="#606060" stroke="white" stroke-width="0.52" stroke-miterlimit="10"/>
<path d="M19.9291 22.8333H19.8295H19.6686H19.5H20.1667C20.09 22.8333 20.0057 22.8333 19.9291 22.8333Z" fill="#606060" stroke="white" stroke-width="0.52" stroke-miterlimit="10"/>
<path d="M19.9291 22.8333H19.8295H19.6686H19.5H20.1667C20.09 22.8333 20.0057 22.8333 19.9291 22.8333Z" fill="#606060" stroke="white" stroke-width="0.52" stroke-miterlimit="10"/>
<path d="M10.8333 8.16666V9.15346C10.8333 9.6769 11.029 10.1789 11.3772 10.549C11.7254 10.9191 12.1977 11.1271 12.6902 11.1271H12.8257C13.0509 11.1271 13.2738 11.1742 13.4818 11.2658C13.6898 11.3574 13.8789 11.4916 14.0381 11.6608C14.1973 11.8301 14.3236 12.031 14.4097 12.252C14.4959 12.4731 14.5402 12.7101 14.5402 12.9494C14.5401 13.2896 14.6295 13.623 14.7983 13.912C14.9672 14.201 15.2088 14.4339 15.4958 14.5845L15.5703 14.6277C15.8273 14.763 16.1103 14.8333 16.3971 14.8333C16.6839 14.8333 16.9668 14.763 17.2238 14.6277L17.3052 14.5845C17.5904 14.4323 17.8302 14.1987 17.9977 13.91C18.1652 13.6212 18.2539 13.2887 18.2539 12.9494C18.2539 12.4661 18.4346 12.0026 18.7561 11.6608C19.0776 11.3191 19.5137 11.1271 19.9684 11.1271H21.5" stroke="#606060" stroke-width="1.83" stroke-linecap="round" stroke-linejoin="round"/>
<path d="M26.7394 16.5196C26.6625 16.4122 26.5604 16.3241 26.4417 16.2627C26.323 16.2014 26.191 16.1684 26.0566 16.1667H16.3399C16.229 16.1667 16.1193 16.1881 16.0169 16.2296C15.9146 16.2712 15.8217 16.3322 15.7436 16.4089C15.6655 16.4857 15.6038 16.5768 15.562 16.677C15.5202 16.7771 15.4991 16.8844 15.5 16.9925V23.3727H16.5857C16.6548 23.7807 16.8702 24.1515 17.1934 24.419C17.5167 24.6865 17.9269 24.8333 18.3508 24.8333C18.7748 24.8333 19.185 24.6865 19.5083 24.419C19.8315 24.1515 20.0469 23.7807 20.116 23.3727H23.3389C23.4123 23.7782 23.6298 24.1455 23.9532 24.4102C24.2766 24.6749 24.6853 24.8199 25.1075 24.8199C25.5296 24.8199 25.9383 24.6749 26.2617 24.4102C26.5852 24.1455 26.8026 23.7782 26.876 23.3727H28.1665V18.7107C28.1691 18.5848 28.1308 18.4613 28.0573 18.3578L26.7394 16.5196ZM19.8292 16.9925H23.6257V19.4966H19.8292V16.9925ZM16.3399 16.9925H18.9825V19.4966H16.3399V16.9925ZM18.3474 23.9921C18.1597 23.9921 17.9762 23.9378 17.8201 23.836C17.664 23.7343 17.5424 23.5897 17.4705 23.4206C17.3987 23.2514 17.3799 23.0653 17.4165 22.8857C17.4532 22.7062 17.5436 22.5412 17.6763 22.4117C17.809 22.2823 17.9782 22.1941 18.1623 22.1584C18.3464 22.1227 18.5372 22.141 18.7107 22.2111C18.8841 22.2811 19.0323 22.3998 19.1366 22.552C19.2409 22.7043 19.2966 22.8832 19.2966 23.0663C19.2966 23.3118 19.1966 23.5473 19.0186 23.7209C18.8406 23.8945 18.5992 23.9921 18.3474 23.9921ZM25.1075 23.9921C24.9197 23.9921 24.7362 23.9378 24.5802 23.836C24.4241 23.7343 24.3024 23.5897 24.2306 23.4206C24.1587 23.2514 24.1399 23.0653 24.1766 22.8857C24.2132 22.7062 24.3036 22.5412 24.4363 22.4117C24.5691 22.2823 24.7382 22.1941 24.9223 22.1584C25.1064 22.1227 25.2973 22.141 25.4707 22.2111C25.6441 22.2811 25.7924 22.3998 25.8966 22.552C26.0009 22.7043 26.0566 22.8832 26.0566 23.0663C26.0566 23.3118 25.9566 23.5473 25.7786 23.7209C25.6006 23.8945 25.3592 23.9921 25.1075 23.9921ZM27.3267 22.5535H26.8214C26.7528 22.3337 26.6403 22.1293 26.4905 21.952C26.3407 21.7747 26.1564 21.628 25.9483 21.5204C25.7402 21.4127 25.5124 21.3462 25.2779 21.3246C25.0433 21.303 24.8067 21.3268 24.5817 21.3947C24.3006 21.4766 24.0449 21.6254 23.8375 21.8277C23.6301 22.03 23.4775 22.2794 23.3936 22.5535H20.0955C19.9779 22.2024 19.7494 21.8965 19.4428 21.6795C19.1362 21.4626 18.7672 21.3458 18.3884 21.3458C18.0096 21.3458 17.6406 21.4626 17.334 21.6795C17.0274 21.8965 16.7989 22.2024 16.6813 22.5535H16.3399V20.2891H27.3267V22.5535ZM27.3267 19.4633H24.4724V16.9925H26.0498L27.3267 18.7707V19.4633Z" fill="#445E91"/>
<path d="M7.33279 15.5013C7.65903 16.1521 8.02691 16.8713 8.29068 17.618C8.44339 18.0153 8.58221 18.4194 8.7141 18.8236C8.84598 19.2278 8.96398 19.6456 9.06116 20.0498C9.25331 20.8216 9.38328 21.6073 9.44987 22.3993C9.44987 22.5843 9.44987 22.7555 9.48457 22.92C9.51928 23.0844 9.48457 23.2488 9.48457 23.3995C9.48457 23.694 9.48457 23.9475 9.48457 24.1667H6.5762C6.58255 24.1081 6.59655 24.0505 6.61784 23.9954C6.61784 23.9954 6.65949 23.8447 6.74279 23.5844C6.74279 23.4474 6.81914 23.283 6.85385 23.0844C6.88855 22.8857 6.89549 22.8789 6.91632 22.7624C6.93714 22.6459 6.95102 22.5226 6.96491 22.3925C7.03416 21.7785 7.05504 21.1601 7.02738 20.543C7.02738 20.1868 6.98573 19.8237 6.95102 19.447C6.91632 19.0702 6.85385 18.6866 6.79137 18.2961C6.63345 17.3859 6.42489 16.4849 6.16666 15.5972C6.5509 15.525 6.94175 15.4929 7.33279 15.5013Z" fill="white" stroke="#445E91" stroke-width="0.98" stroke-linejoin="round"/>
<path d="M8.27487 14.1667C9.14338 14.6627 9.86528 15.3734 10.3691 16.2285C9.52187 15.6833 8.53309 15.3898 7.52094 15.3832C7.12768 15.3747 6.7346 15.407 6.34817 15.4794C6.34817 15.4175 3.50698 16.6409 2.66231 18.1667C2.95636 16.7928 3.63318 15.5267 4.61693 14.5103C3.33538 14.3703 2.03839 14.5329 0.833336 14.9845C2.27513 13.745 4.07346 12.9786 5.97819 12.7921C6.63321 11.7568 7.49538 10.8635 8.51222 10.1667C8.36628 11.0405 8.2684 11.9215 8.21902 12.8058C9.84738 12.7532 11.4545 13.1817 12.8333 14.0361C11.3405 13.5854 9.73853 13.6313 8.27487 14.1667Z" fill="white" stroke="#445E91" stroke-width="0.98" stroke-linejoin="round"/>
<path d="M4.83334 24.8333C5.08475 23.6953 6.32824 22.8333 7.83673 22.8333C9.34523 22.8333 10.5547 23.6702 10.8333 24.8333H4.83334Z" fill="white" stroke="#445E91" stroke-width="0.98" stroke-linejoin="round"/>
</g>
<defs>
<clipPath id="clip0_1_1300">
<rect width="30" height="30" fill="white" transform="translate(0.5 0.5)"/>
</clipPath>
</defs>
</svg>
