<svg width="31" height="31" viewBox="0 0 31 31" fill="none" xmlns="http://www.w3.org/2000/svg">
<path d="M11.5625 21.5938L11.6312 21.6625H12.1125V22.7813H11.1812V26.125C11.182 26.2798 11.2137 26.4329 11.2744 26.5753C11.3352 26.7177 11.4237 26.8465 11.5349 26.9542C11.6461 27.0619 11.7777 27.1463 11.922 27.2025C12.0662 27.2586 12.2203 27.2854 12.375 27.2813H14.825C15.1268 27.2731 15.4136 27.1479 15.6247 26.9322C15.8358 26.7164 15.9547 26.4269 15.9562 26.125V22.7813H15.025V21.6625H15.4125L15.4875 21.5938C17.4312 19.8063 20.6875 16.3125 20.6875 13C20.6944 11.8377 20.4154 10.6916 19.875 9.6625H21.3875V9.14375H19.55C19.1281 8.49382 18.6048 7.91567 18 7.43125C18.2548 7.32593 18.5334 7.29138 18.8062 7.33125C19.0497 7.34761 19.294 7.34761 19.5375 7.33125V7.11875C19.6265 6.6982 19.8573 6.321 20.1912 6.05033C20.5252 5.77965 20.942 5.63195 21.3719 5.63195C21.8017 5.63195 22.2186 5.77965 22.5525 6.05033C22.8864 6.321 23.1173 6.6982 23.2062 7.11875V7.35H24.3187C24.4445 7.33957 24.5711 7.35533 24.6904 7.3963C24.8098 7.43726 24.9193 7.50253 25.0122 7.588C25.105 7.67346 25.1791 7.77725 25.2298 7.89281C25.2805 8.00837 25.3067 8.13319 25.3067 8.25938C25.3067 8.38557 25.2805 8.51039 25.2298 8.62595C25.1791 8.74151 25.105 8.8453 25.0122 8.93076C24.9193 9.01622 24.8098 9.0815 24.6904 9.12246C24.5711 9.16343 24.4445 9.17919 24.3187 9.16875H22.2V9.6875H24.3625C24.7404 9.6875 25.1029 9.53737 25.3701 9.27013C25.6374 9.00289 25.7875 8.64044 25.7875 8.2625C25.7875 7.88457 25.6374 7.52212 25.3701 7.25488C25.1029 6.98764 24.7404 6.8375 24.3625 6.8375H23.7C23.589 6.30637 23.2985 5.82964 22.8773 5.48746C22.4562 5.14527 21.9301 4.95848 21.3875 4.95848C20.8449 4.95848 20.3188 5.14527 19.8977 5.48746C19.4765 5.82964 19.186 6.30637 19.075 6.8375H18.8187C18.3802 6.77901 17.9354 6.88354 17.5687 7.13125C16.4999 6.40356 15.253 5.98072 13.962 5.90815C12.671 5.83557 11.3846 6.116 10.241 6.71931C9.09731 7.32263 8.13956 8.22605 7.47057 9.33258C6.80157 10.4391 6.4466 11.707 6.44375 13C6.44375 16.35 9.25 19.525 11.5625 21.5938ZM14.3312 21.125C15.0428 18.4728 15.4352 15.7452 15.5 13C15.5 10.375 15.1312 7.73125 14.4187 6.5375C16.2937 7.1625 17.7062 9.83125 17.7062 13C17.7062 16.075 15.7562 19.375 14.5312 21.125H14.3312ZM15.0125 13C14.9369 15.7473 14.5298 18.4754 13.8 21.125H13.3062C12.5699 18.4775 12.1709 15.7475 12.1187 13C12.1187 8.9625 12.975 6.3875 13.5687 6.3875C14.1625 6.3875 15.0125 8.96875 15.0125 13ZM12.6937 6.54375C11.975 7.7375 11.6062 10.3813 11.6062 13.0063C11.6535 15.7529 12.0461 18.4827 12.775 21.1313H12.5125C11.3187 19.4563 9.3875 16.2688 9.3875 13.0063C9.4 9.8375 10.8125 7.18125 12.6937 6.54375ZM15.4375 26.125C15.4375 26.2908 15.3717 26.4497 15.2544 26.5669C15.1372 26.6842 14.9783 26.75 14.8125 26.75H12.375C12.2092 26.75 12.0503 26.6842 11.9331 26.5669C11.8158 26.4497 11.75 26.2908 11.75 26.125V23.2938H15.5V26.125H15.4375ZM12.625 22.7875V21.6625H14.5V22.7813L12.625 22.7875ZM20.175 13C20.175 16.0688 17.1 19.3938 15.2125 21.125H15.1812C16.4312 19.25 18.25 16.025 18.25 13C18.25 10.35 17.2875 8 15.875 6.80625C17.137 7.27827 18.2248 8.12419 18.9932 9.23096C19.7616 10.3377 20.1739 11.6527 20.175 13ZM11.2562 6.8125C9.84375 8.0625 8.8875 10.3563 8.8875 13.0063C8.8875 16.2438 10.65 19.3563 11.8875 21.1313H11.825C9.95 19.4688 6.95625 16.2688 6.95625 13.0063C6.95826 11.6591 7.3709 10.3446 8.13916 9.23798C8.90742 8.13138 9.99478 7.28527 11.2562 6.8125Z" fill="#606060"/>
<path d="M14.7938 27.5188H12.375C12.1888 27.5238 12.0036 27.4914 11.8301 27.4236C11.6567 27.3558 11.4986 27.254 11.3651 27.124C11.2317 26.9941 11.1257 26.8388 11.0533 26.6672C10.9809 26.4956 10.9437 26.3112 10.9438 26.125V22.5438H11.875V21.9188H11.5438L11.4063 21.7938C9.03125 19.6938 6.20625 16.4625 6.20625 13.0438C6.20635 11.7218 6.56269 10.4242 7.2378 9.2876C7.91292 8.15099 8.88185 7.2173 10.0427 6.58476C11.2035 5.95221 12.5134 5.64417 13.8345 5.69305C15.1556 5.74193 16.4391 6.14591 17.55 6.8625C17.932 6.65537 18.3682 6.5703 18.8 6.61875H18.8688C19.0239 6.07545 19.3519 5.5975 19.803 5.25723C20.2541 4.91696 20.8037 4.73289 21.3688 4.73289C21.9338 4.73289 22.4834 4.91696 22.9345 5.25723C23.3856 5.5975 23.7136 6.07545 23.8688 6.61875H24.3438C24.5702 6.60485 24.7972 6.63745 25.0106 6.71455C25.224 6.79165 25.4193 6.91162 25.5846 7.06708C25.7499 7.22253 25.8816 7.41017 25.9717 7.61844C26.0617 7.82672 26.1081 8.05122 26.1081 8.27813C26.1081 8.50503 26.0617 8.72953 25.9717 8.93781C25.8816 9.14609 25.7499 9.33373 25.5846 9.48918C25.4193 9.64463 25.224 9.7646 25.0106 9.8417C24.7972 9.91881 24.5702 9.95141 24.3438 9.9375H21.9688V8.9125H24.3625C24.5415 8.9125 24.7132 8.84139 24.8398 8.7148C24.9664 8.58821 25.0375 8.41652 25.0375 8.2375C25.0375 8.05848 24.9664 7.88679 24.8398 7.76021C24.7132 7.63362 24.5415 7.5625 24.3625 7.5625H23.0438L23 7.11875C22.9572 6.72346 22.7698 6.35793 22.474 6.09235C22.1781 5.82677 21.7945 5.67988 21.3969 5.67988C20.9993 5.67988 20.6157 5.82677 20.3198 6.09235C20.0239 6.35793 19.8366 6.72346 19.7938 7.11875L19.75 7.53125H19.55H19.425C19.217 7.54803 19.008 7.54803 18.8 7.53125H18.5125C18.9561 7.93385 19.3486 8.38933 19.6813 8.8875H21.6125V9.875H20.2375C20.6963 10.8528 20.9332 11.9199 20.9313 13C20.9313 16.3938 17.625 19.9438 15.65 21.75L15.5063 21.875H15.2625V22.5H16.1875V26.125C16.1875 26.308 16.1515 26.4893 16.0814 26.6584C16.0114 26.8275 15.9087 26.9811 15.7793 27.1105C15.6499 27.24 15.4962 27.3426 15.3271 27.4127C15.158 27.4827 14.9768 27.5188 14.7938 27.5188ZM11.4125 23V26.125C11.4133 26.2494 11.439 26.3725 11.4881 26.4868C11.5372 26.6012 11.6087 26.7045 11.6985 26.7907C11.7882 26.877 11.8943 26.9443 12.0105 26.9889C12.1267 27.0334 12.2506 27.0542 12.375 27.05H14.825C15.0649 27.0419 15.2922 26.9409 15.459 26.7683C15.6257 26.5957 15.7189 26.365 15.7188 26.125V23H14.7875V21.425H15.325C17.2438 19.6625 20.4563 16.225 20.4563 13.0125C20.4555 11.883 20.1764 10.771 19.6438 9.775L19.4625 9.43125H21.125V9.3875H19.425L19.3563 9.25C18.9459 8.61919 18.4374 8.05796 17.85 7.5875L17.5688 7.375L17.4313 7.28125C16.7584 6.82851 16.0118 6.49646 15.225 6.3L15.9625 6.575C17.2689 7.06745 18.3944 7.94595 19.1893 9.09366C19.9842 10.2414 20.4109 11.6039 20.4125 13C20.4125 16.1688 17.25 19.5688 15.3688 21.3125L15.3063 21.375H14.7688L14.9813 21.0125C16.125 19.3313 18 16.0563 18 13C18 10.5 17.125 8.20625 15.7063 6.98125L14.875 6.2375C14.5673 6.18041 14.2562 6.14284 13.9438 6.125L14.5188 6.31875C16.5188 7 18 9.8125 18 13C18 16.1875 15.95 19.5438 14.75 21.2813L14.6813 21.3813H14.0563L14.1313 21.0875C14.8383 18.4474 15.2286 15.7324 15.2938 13C15.2938 10.2125 14.8813 7.725 14.2375 6.65625L13.9188 6.125C13.6835 6.1125 13.4478 6.1125 13.2125 6.125L12.8938 6.6625C12.2688 7.73125 11.8438 10.2188 11.8438 13.0063C11.8928 15.7375 12.2812 18.4521 13 21.0875L13.0813 21.3813H12.375L12.3063 21.2813C11.125 19.6375 9.1625 16.375 9.1625 13C9.1625 9.80625 10.6188 6.99375 12.6125 6.3125L13.1875 6.125C12.8833 6.14324 12.5806 6.18081 12.2813 6.2375L11.4125 6.9875C10 8.2375 9.11875 10.5188 9.11875 13.0063C9.11875 16.25 10.9938 19.4188 12.0813 21.0125L12.3313 21.3813H11.75L11.6813 21.325C9.825 19.6688 6.75 16.3875 6.75 13C6.75352 11.61 7.17827 10.2538 7.96824 9.11011C8.75821 7.96644 9.87628 7.08908 11.175 6.59375L11.9188 6.31875C10.4227 6.68417 9.09261 7.54132 8.14178 8.75281C7.19095 9.96429 6.67443 11.4599 6.675 13C6.675 16.2625 9.41875 19.375 11.7125 21.4125H12.3375V23H11.4125ZM12.1938 7.025C10.6813 7.94375 9.63125 10.3188 9.63125 12.9938C9.63125 15.9375 11.225 18.8188 12.375 20.525C11.7515 18.0723 11.4159 15.5554 11.375 13.025C11.375 11.025 11.5938 8.55 12.1938 7.0375V7.025ZM14.9375 7.025C15.5625 8.5375 15.7625 11.0125 15.7625 12.9938C15.7047 15.5051 15.3651 18.002 14.75 20.4375C15.925 18.625 17.5 15.7188 17.5 13C17.5 10.2813 16.45 7.95625 14.9375 7.0375V7.025ZM10.2625 7.54375C9.32697 8.11475 8.55358 8.91622 8.01629 9.87152C7.479 10.8268 7.1958 11.904 7.19375 13C7.19375 15.5 9.06875 18.0375 10.7375 19.7688C9.46106 17.7326 8.7333 15.4007 8.625 13C8.59427 11.0597 9.16641 9.15763 10.2625 7.55625V7.54375ZM16.8688 7.54375C17.9585 9.15155 18.5219 11.0581 18.4813 13C18.4813 15.3188 17.4813 17.7125 16.375 19.6563C18.0688 17.8625 19.9438 15.3375 19.9438 13C19.9383 11.9056 19.6529 10.8309 19.1147 9.87798C18.5764 8.9251 17.8032 8.12583 16.8688 7.55625V7.54375ZM22.4375 9.41875H24.3625C24.5261 9.43061 24.6904 9.40863 24.8451 9.35417C24.9999 9.29971 25.1417 9.21394 25.2618 9.10222C25.382 8.9905 25.4778 8.85523 25.5433 8.70483C25.6088 8.55444 25.6426 8.39217 25.6426 8.22813C25.6426 8.06409 25.6088 7.90181 25.5433 7.75142C25.4778 7.60103 25.382 7.46575 25.2618 7.35403C25.1417 7.24231 24.9999 7.15655 24.8451 7.10209C24.6904 7.04763 24.5261 7.02564 24.3625 7.0375H23.5125L23.475 6.85C23.3732 6.3727 23.1107 5.94479 22.7313 5.63778C22.3519 5.33078 21.8787 5.16328 21.3906 5.16328C20.9026 5.16328 20.4293 5.33078 20.05 5.63778C19.6706 5.94479 19.408 6.3727 19.3063 6.85L19.2688 7.03125H18.8313C18.437 6.97093 18.0344 7.05769 17.7 7.275L17.5875 7.35625L17.8875 7.20625C18.1757 7.07845 18.4938 7.03302 18.8063 7.075C18.9768 7.08987 19.1482 7.08987 19.3188 7.075C19.381 6.56933 19.626 6.10386 20.0076 5.76631C20.3892 5.42876 20.8811 5.24243 21.3906 5.24243C21.9001 5.24243 22.392 5.42876 22.7736 5.76631C23.1553 6.10386 23.4003 6.56933 23.4625 7.075H24.3625C24.6658 7.075 24.9568 7.1955 25.1713 7.41C25.3858 7.62449 25.5063 7.91541 25.5063 8.21875C25.5063 8.52209 25.3858 8.81301 25.1713 9.02751C24.9568 9.242 24.6658 9.3625 24.3625 9.3625H22.4375V9.41875ZM14.7938 27.0063H12.375C12.2564 27.0104 12.1381 26.9908 12.0272 26.9484C11.9163 26.9061 11.815 26.842 11.7294 26.7598C11.6437 26.6776 11.5754 26.5791 11.5285 26.4701C11.4816 26.361 11.457 26.2437 11.4563 26.125V23.0625H15.675V26.125C15.675 26.3587 15.5822 26.5829 15.4169 26.7481C15.2516 26.9134 15.0275 27.0063 14.7938 27.0063ZM11.925 23.5313V26.125C11.9266 26.235 11.9715 26.3399 12.0498 26.4171C12.1282 26.4943 12.2338 26.5375 12.3438 26.5375H14.7938C14.9027 26.5359 15.0066 26.4919 15.0837 26.4149C15.1607 26.3379 15.2046 26.2339 15.2063 26.125V23.5313H11.925ZM14.7438 23H12.375V21.425H14.5V21.6625H14.7313L14.7438 23ZM12.8688 22.5313H14.25V21.9063H12.8563L12.8688 22.5313ZM13.9938 21.3688H13.1313L13.0813 21.1938C12.3396 18.5237 11.9385 15.7706 11.8875 13C11.8875 9.2875 12.6563 6.125 13.5688 6.125C14.4813 6.125 15.2438 9.25 15.2438 13C15.1671 15.7718 14.7601 18.5246 14.0313 21.2L13.9938 21.3688ZM13.5 20.9H13.625C14.3211 18.3218 14.7072 15.6697 14.775 13C14.775 8.96875 13.925 6.7 13.5625 6.625C13.2063 6.7125 12.375 8.975 12.375 13C12.415 15.6735 12.7888 18.3316 13.4875 20.9125L13.5 20.9Z" fill="#606060"/>
<path d="M3.3 19.0438C3.3 18.9398 3.32057 18.8369 3.36054 18.7409C3.4005 18.645 3.45907 18.5579 3.53286 18.4847C3.60665 18.4115 3.6942 18.3536 3.79047 18.3144C3.88673 18.2752 3.98981 18.2554 4.09375 18.2562H5.1125C5.11074 17.8764 5.23767 17.5072 5.4726 17.2087C5.70754 16.9102 6.03662 16.7 6.40625 16.6125L6.3 16.125C5.90055 16.2124 5.53455 16.4125 5.24541 16.7017C4.95628 16.9908 4.75614 17.3568 4.66875 17.7563H4.09375C3.74731 17.7563 3.41506 17.8939 3.17009 18.1388C2.92512 18.3838 2.7875 18.7161 2.7875 19.0625C2.7875 19.4089 2.92512 19.7412 3.17009 19.9862C3.41506 20.2311 3.74731 20.3688 4.09375 20.3688H9.425V19.8562H4.09375C3.98792 19.8563 3.88314 19.8351 3.7856 19.7941C3.68805 19.753 3.5997 19.6929 3.52575 19.6172C3.45179 19.5415 3.39372 19.4517 3.35495 19.3533C3.31618 19.2548 3.2975 19.1496 3.3 19.0438Z" fill="#445E91"/>
<path d="M9.65625 20.5813H4.09375C3.68598 20.5813 3.29491 20.4193 3.00657 20.1309C2.71824 19.8426 2.55625 19.4515 2.55625 19.0438C2.55625 18.636 2.71824 18.2449 3.00657 17.9566C3.29491 17.6682 3.68598 17.5063 4.09375 17.5063H4.4875C4.60959 17.1028 4.83741 16.7393 5.14733 16.4536C5.45724 16.1679 5.83796 15.9702 6.25 15.8813L6.475 15.8313L6.6875 16.7875L6.45625 16.8375C6.13943 16.9066 5.85625 17.0832 5.65465 17.3372C5.45305 17.5911 5.34543 17.907 5.35 18.2313V18.3438L5.2875 18.4875H4.09375C3.94622 18.4875 3.80474 18.5461 3.70042 18.6504C3.59611 18.7547 3.5375 18.8962 3.5375 19.0438C3.5375 19.1913 3.59611 19.3328 3.70042 19.4371C3.80474 19.5414 3.94622 19.6 4.09375 19.6H9.65625V20.5813ZM4.09375 18C3.8103 18 3.53846 18.1126 3.33803 18.313C3.1376 18.5135 3.025 18.7853 3.025 19.0688C3.025 19.3522 3.1376 19.624 3.33803 19.8245C3.53846 20.0249 3.8103 20.1375 4.09375 20.1375H9.1875V20.0938H4.09375C3.8219 20.0938 3.56119 19.9858 3.36897 19.7935C3.17674 19.6013 3.06875 19.3406 3.06875 19.0688C3.06875 18.7969 3.17674 18.5362 3.36897 18.344C3.56119 18.1517 3.8219 18.0438 4.09375 18.0438H4.9125C4.93715 17.6856 5.06981 17.3434 5.29297 17.0622C5.51614 16.781 5.81932 16.5741 6.1625 16.4688V16.425C5.85322 16.5307 5.57606 16.7136 5.35731 16.9564C5.13855 17.1992 4.98544 17.4939 4.9125 17.8125L4.875 18H4.09375Z" fill="#445E91"/>
</svg>
