<svg width="45" height="46" viewBox="0 0 45 46" fill="none" xmlns="http://www.w3.org/2000/svg">
<path fill-rule="evenodd" clip-rule="evenodd" d="M28.7654 12.1542V10.6628C28.7217 10.2993 28.5406 9.96401 28.2565 9.72061C27.9724 9.47721 27.6051 9.34272 27.2246 9.34272C26.8442 9.34272 26.4769 9.47721 26.1928 9.72061C25.9087 9.96401 25.7276 10.2993 25.6839 10.6628V12.1542H16.3572V10.6628C16.3823 10.4539 16.3612 10.2422 16.2953 10.0417C16.2293 9.84114 16.12 9.65629 15.9745 9.49926C15.829 9.34223 15.6506 9.21657 15.451 9.13053C15.2514 9.04448 15.0352 9 14.8164 9C14.5977 9 14.3815 9.04448 14.1819 9.13053C13.9823 9.21657 13.8039 9.34223 13.6584 9.49926C13.5129 9.65629 13.4036 9.84114 13.3376 10.0417C13.2717 10.2422 13.2505 10.4539 13.2757 10.6628V12.1542C12.2555 12.1516 11.2449 12.3426 10.3016 12.7162C9.35834 13.0898 8.50099 13.6387 7.77869 14.3314C7.05638 15.0241 6.4833 15.847 6.09228 16.7531C5.70127 17.6591 5.5 18.6304 5.5 19.6114V31.5428C5.5 33.5206 6.31706 35.4174 7.77143 36.8159C9.2258 38.2143 11.1983 39 13.2551 39H26.8343C27.2064 38.6515 27.4205 38.1759 27.4301 37.6765H33.172C33.978 37.146 34.6746 36.4762 35.2263 35.7011H30.5013C29.9492 35.9128 29.3598 36.0201 28.7654 36.0171H25.6839C25.5065 36.1993 25.4075 36.4392 25.4066 36.6888L25.4682 37.5777L24.5437 37.6271V36.0171H13.2449C12.6334 36.0184 12.0278 35.9036 11.4626 35.6792C10.8975 35.4548 10.384 35.1253 9.95162 34.7096C9.51927 34.2938 9.17658 33.8001 8.94322 33.2566C8.70986 32.7132 8.59043 32.1308 8.59178 31.5428V19.6114C8.59178 18.4247 9.08202 17.2867 9.95464 16.4476C10.8273 15.6085 12.0108 15.1371 13.2449 15.1371C13.2197 15.346 13.2408 15.5577 13.3068 15.7582C13.3728 15.9587 13.4821 16.1436 13.6276 16.3006C13.7731 16.4576 13.9515 16.5833 14.1511 16.6694C14.3506 16.7554 14.5669 16.7999 14.7856 16.7999C15.0043 16.7999 15.2206 16.7554 15.4202 16.6694C15.6198 16.5833 15.7982 16.4576 15.9437 16.3006C16.0892 16.1436 16.1985 15.9587 16.2644 15.7582C16.3304 15.5577 16.3515 15.346 16.3264 15.1371H25.6325C25.6763 15.5005 25.8574 15.8359 26.1415 16.0793C26.4256 16.3227 26.7928 16.4572 27.1733 16.4572C27.5538 16.4572 27.921 16.3227 28.2051 16.0793C28.4892 15.8359 28.6703 15.5005 28.714 15.1371C29.9481 15.1371 31.1316 15.6085 32.0043 16.4476C32.8769 17.2867 33.3671 18.4247 33.3671 19.6114V25.5376H35.9351C36.1272 25.5369 36.3145 25.5958 36.4692 25.7055V19.6114C36.4692 17.6421 35.6592 15.7528 34.2159 14.3558C32.7727 12.9587 30.8133 12.1673 28.7654 12.1542ZM33.4185 29.1526V31.128H36.5V29.1526H33.4185ZM36.0891 33.4195C36.0888 33.5534 36.1095 33.6866 36.1508 33.8146C36.2867 33.3766 36.3762 32.9266 36.4178 32.4713C36.195 32.74 36.0785 33.076 36.0891 33.4195Z" fill="#606060" stroke="white" stroke-width="0.8" stroke-miterlimit="10"/>
<path d="M41.1373 28.6154L40.4948 29.1015L38.9287 30.2938L38.5472 30.5873C38.1926 30.8515 37.7499 30.9971 37.2923 31H26.5705C26.113 30.9971 25.6702 30.8515 25.3156 30.5873L24.9643 30.2938L23.3982 29.1015L22.7557 28.6154C22.5962 28.4525 22.5056 28.2429 22.5003 28.0244C22.4949 27.8059 22.5751 27.5929 22.7265 27.4236C22.8778 27.2544 23.0903 27.1401 23.3258 27.1013C23.5612 27.0625 23.804 27.1018 24.0105 27.2121L24.382 27.4964L25.9682 28.6796L26.6207 29.1748H37.2923L37.9148 28.6979L39.4809 27.4964L39.8523 27.2121C40.0573 27.0564 40.3216 26.9815 40.5871 27.0039C40.8526 27.0262 41.0974 27.144 41.2678 27.3313C41.4382 27.5186 41.5202 27.7601 41.4958 28.0026C41.4713 28.2451 41.3423 28.4689 41.1373 28.6245V28.6154Z" fill="#606060"/>
<path d="M26.5 35C26.2348 35 25.9804 34.8946 25.7929 34.7071C25.6054 34.5196 25.5 34.2652 25.5 34C25.5 33.7348 25.6054 33.4804 25.7929 33.2929C25.9804 33.1054 26.2348 33 26.5 33C26.7652 33 27.0196 33.1054 27.2071 33.2929C27.3946 33.4804 27.5 33.7348 27.5 34C27.5 34.2652 27.3946 34.5196 27.2071 34.7071C27.0196 34.8946 26.7652 35 26.5 35Z" fill="#6194E4"/>
<path d="M37.5 35C37.2348 35 36.9804 34.8946 36.7929 34.7071C36.6054 34.5196 36.5 34.2652 36.5 34C36.5 33.7348 36.6054 33.4804 36.7929 33.2929C36.9804 33.1054 37.2348 33 37.5 33C37.7652 33 38.0196 33.1054 38.2071 33.2929C38.3946 33.4804 38.5 33.7348 38.5 34C38.5 34.2652 38.3946 34.5196 38.2071 34.7071C38.0196 34.8946 37.7652 35 37.5 35Z" fill="#6194E4"/>
<path d="M28.3615 24H28.2618C27.7714 24.0162 27.2933 24.1561 26.8729 24.4065C26.4525 24.6568 26.1036 25.0092 25.8594 25.4303L24.4937 27.7978L26.0687 29.09L27.6139 26.4266C27.6894 26.291 27.8007 26.1781 27.9358 26.1C28.0709 26.0218 28.2249 25.9813 28.3814 25.9827H33.1464V24.0099L28.3615 24ZM40.862 30.185L40.4932 29.5438L39.4963 27.8076L38.1306 25.4402C37.923 25.0768 37.6365 24.7636 37.2917 24.5231C36.9469 24.2826 36.5525 24.1208 36.1369 24.0493C35.9645 24.0345 35.791 24.0345 35.6186 24.0493H28.2618C27.7714 24.0656 27.2933 24.2055 26.8729 24.4558C26.4525 24.7061 26.1036 25.0585 25.8594 25.4797L24.4937 27.8471L23.4969 29.5832L23.128 30.2244C22.7176 30.9367 22.5012 31.7423 22.5 32.5623V38.1159C22.5088 38.6176 22.7165 39.0959 23.0782 39.4476C23.4453 39.7978 23.934 39.9955 24.4439 40H25.3909C25.8962 39.9976 26.3807 39.8006 26.7417 39.4507C27.1027 39.1009 27.3118 38.6256 27.3248 38.1258H36.6752C36.7003 38.6233 36.9146 39.0931 37.2751 39.4407C37.6357 39.7884 38.1158 39.9882 38.6191 40H39.5561C40.0677 39.9875 40.5548 39.7808 40.9167 39.4228C41.2785 39.0647 41.4874 38.5827 41.5 38.0764V32.5228C41.4957 31.702 41.2759 30.8963 40.862 30.185ZM38.659 38.0764V37.09C38.659 36.8284 38.5539 36.5775 38.367 36.3925C38.1801 36.2075 37.9265 36.1036 37.6621 36.1036H26.3179C26.1813 36.104 26.0461 36.1323 25.9209 36.1866C25.7958 36.2409 25.6832 36.3201 25.5902 36.4192C25.4181 36.6012 25.322 36.8408 25.3211 37.09L25.3809 37.9778L24.4837 38.0271V32.5228C24.4857 32.0451 24.6127 31.5761 24.8526 31.1615L25.042 30.8261L26.0388 29.09L27.5839 26.4266C27.6595 26.291 27.7707 26.1781 27.9059 26.1C28.041 26.0218 28.195 25.9813 28.3515 25.9827H35.6086C35.7656 25.9855 35.9193 26.0277 36.0553 26.1053C36.1913 26.183 36.3051 26.2935 36.3861 26.4266L37.9213 29.0999L38.9182 30.8261L39.1076 31.1615C39.3474 31.5761 39.4745 32.0451 39.4764 32.5228L39.5262 38.0271L38.659 38.0764Z" fill="#606060"/>
<path d="M27.0101 32C26.713 31.998 26.422 32.0843 26.174 32.2479C25.926 32.4115 25.7322 32.645 25.6171 32.919C25.502 33.1929 25.4709 33.4948 25.5276 33.7864C25.5843 34.078 25.7264 34.3463 25.9358 34.5571C26.1451 34.7679 26.4124 34.9117 26.7036 34.9704C26.9949 35.0291 27.297 35 27.5717 34.8868C27.8463 34.7736 28.0812 34.5813 28.2465 34.3344C28.4118 34.0875 28.5 33.7971 28.5 33.5C28.5 33.104 28.3434 32.724 28.0642 32.4429C27.7851 32.1619 27.4062 32.0027 27.0101 32ZM27.0101 34.0271C26.9401 34.0284 26.8705 34.0158 26.8053 33.9899C26.7402 33.964 26.6809 33.9254 26.6309 33.8763C26.5809 33.8273 26.5412 33.7687 26.514 33.7041C26.4869 33.6395 26.473 33.5701 26.473 33.5C26.473 33.4295 26.4869 33.3596 26.5139 33.2945C26.5409 33.2293 26.5804 33.1701 26.6303 33.1202C26.6802 33.0703 26.7394 33.0308 26.8046 33.0038C26.8697 32.9768 26.9396 32.9629 27.0101 32.9629C27.0802 32.9629 27.1496 32.9768 27.2142 33.0039C27.2788 33.0311 27.3374 33.0708 27.3864 33.1208C27.4355 33.1708 27.4741 33.2301 27.5 33.2952C27.5259 33.3604 27.5385 33.43 27.5372 33.5C27.5372 33.6398 27.4816 33.7739 27.3828 33.8727C27.284 33.9715 27.1499 34.0271 27.0101 34.0271Z" fill="#6194E4"/>
<path d="M36.9949 32C36.7977 32 36.6025 32.0387 36.4205 32.114C36.2384 32.1892 36.0732 32.2995 35.9342 32.4384C35.7953 32.5773 35.6854 32.7422 35.6109 32.9235C35.5364 33.1048 35.4987 33.2989 35.5 33.4947C35.4997 33.6317 35.5202 33.7679 35.561 33.8987C35.6552 34.2485 35.8747 34.552 36.1784 34.7523C36.4821 34.9525 36.849 35.0356 37.2101 34.986C37.5712 34.9363 37.9016 34.7574 38.1391 34.4827C38.3766 34.2081 38.5049 33.8568 38.4999 33.4947C38.4999 33.2985 38.4609 33.1041 38.3853 32.9227C38.3097 32.7414 38.1988 32.5766 38.0591 32.4378C37.9193 32.299 37.7534 32.1889 37.5708 32.1138C37.3882 32.0387 37.1925 32 36.9949 32ZM36.9949 34.0199C36.8546 34.0199 36.7201 33.9646 36.621 33.8661C36.5218 33.7676 36.4661 33.634 36.4661 33.4947C36.4647 33.4249 36.4774 33.3556 36.5034 33.2907C36.5293 33.2258 36.5681 33.1667 36.6173 33.1168C36.6666 33.067 36.7253 33.0274 36.7901 33.0004C36.855 32.9734 36.9246 32.9595 36.9949 32.9595C37.1378 32.9595 37.2749 33.0159 37.376 33.1162C37.477 33.2166 37.5338 33.3528 37.5338 33.4947C37.5338 33.5646 37.5198 33.6337 37.4926 33.6981C37.4654 33.7625 37.4255 33.8208 37.3754 33.8697C37.3252 33.9186 37.2657 33.9571 37.2003 33.9829C37.135 34.0087 37.0652 34.0213 36.9949 34.0199Z" fill="#6194E4"/>
<path d="M14.5607 18H12.4393C11.9205 18 11.5 18.3869 11.5 18.8641V20.1359C11.5 20.6131 11.9205 21 12.4393 21H14.5607C15.0795 21 15.5 20.6131 15.5 20.1359V18.8641C15.5 18.3869 15.0795 18 14.5607 18Z" stroke="#6194E4" stroke-miterlimit="10"/>
<path d="M21.5607 18H19.4393C18.9205 18 18.5 18.3869 18.5 18.8641V20.1359C18.5 20.6131 18.9205 21 19.4393 21H21.5607C22.0795 21 22.5 20.6131 22.5 20.1359V18.8641C22.5 18.3869 22.0795 18 21.5607 18Z" stroke="#6194E4" stroke-miterlimit="10"/>
<path d="M14.5607 23H12.4393C11.9205 23 11.5 23.3869 11.5 23.8641V25.1359C11.5 25.6131 11.9205 26 12.4393 26H14.5607C15.0795 26 15.5 25.6131 15.5 25.1359V23.8641C15.5 23.3869 15.0795 23 14.5607 23Z" stroke="#6194E4" stroke-miterlimit="10"/>
<path d="M14.5607 28H12.4393C11.9205 28 11.5 28.3869 11.5 28.8641V30.1359C11.5 30.6131 11.9205 31 12.4393 31H14.5607C15.0795 31 15.5 30.6131 15.5 30.1359V28.8641C15.5 28.3869 15.0795 28 14.5607 28Z" stroke="#6194E4" stroke-miterlimit="10"/>
<path d="M21.5607 23H19.4393C18.9205 23 18.5 23.3869 18.5 23.8641V25.1359C18.5 25.6131 18.9205 26 19.4393 26H21.5607C22.0795 26 22.5 25.6131 22.5 25.1359V23.8641C22.5 23.3869 22.0795 23 21.5607 23Z" stroke="#6194E4" stroke-miterlimit="10"/>
<path d="M28.5607 18H26.4393C25.9205 18 25.5 18.3869 25.5 18.8641V20.1359C25.5 20.6131 25.9205 21 26.4393 21H28.5607C29.0795 21 29.5 20.6131 29.5 20.1359V18.8641C29.5 18.3869 29.0795 18 28.5607 18Z" stroke="#6194E4" stroke-miterlimit="10"/>
</svg>
