<svg width="45" height="46" viewBox="0 0 45 46" fill="none" xmlns="http://www.w3.org/2000/svg">
<path d="M17.4563 36V38.287C17.5248 38.6176 17.5127 38.9579 17.4209 39.2836C17.3292 39.6094 17.16 39.9127 16.9254 40.1718C16.6908 40.4309 16.3966 40.6395 16.0638 40.7826C15.731 40.9258 15.3678 41 15 41C14.6322 41 14.269 40.9258 13.9362 40.7826C13.6034 40.6395 13.3092 40.4309 13.0746 40.1718C12.84 39.9127 12.6708 39.6094 12.5791 39.2836C12.4873 38.9579 12.4752 38.6176 12.5438 38.287V36.2058" stroke="#606060" stroke-width="1.97" stroke-linecap="round" stroke-linejoin="round"/>
<path d="M27.5438 36V38.287C27.4752 38.6176 27.4873 38.9579 27.5791 39.2836C27.6708 39.6094 27.84 39.9127 28.0746 40.1718C28.3092 40.4309 28.6034 40.6395 28.9362 40.7826C29.269 40.9258 29.6322 41 30 41C30.3678 41 30.731 40.9258 31.0638 40.7826C31.3966 40.6395 31.6908 40.4309 31.9254 40.1718C32.16 39.9127 32.3292 39.6094 32.4209 39.2836C32.5127 38.9579 32.5248 38.6176 32.4562 38.287V36" stroke="#606060" stroke-width="1.97" stroke-linecap="round" stroke-linejoin="round"/>
<path d="M6.5 22V17.3569C6.5 16.7318 6.72416 16.1323 7.12318 15.6903C7.52219 15.2483 8.06337 15 8.62766 15H10.5" stroke="#6194E4" stroke-width="1.97" stroke-linecap="round" stroke-linejoin="round"/>
<path d="M38.5 22V17.3569C38.5 16.7318 38.2758 16.1323 37.8768 15.6903C37.4778 15.2483 36.9366 15 36.3723 15H34.5" stroke="#6194E4" stroke-width="1.97" stroke-linecap="round" stroke-linejoin="round"/>
<path d="M31.5943 9H13.4057C13.0232 9 12.6445 9.07188 12.2912 9.21151C11.9379 9.35115 11.6171 9.55579 11.3472 9.81371C11.0772 10.0716 10.8634 10.3777 10.718 10.7145C10.5726 11.0512 10.4986 11.4119 10.5 11.776V33.2346C10.5 33.968 10.8062 34.6714 11.3511 35.19C11.896 35.7086 12.6351 36 13.4057 36H31.5943C32.3649 36 33.104 35.7086 33.6489 35.19C34.1938 34.6714 34.5 33.968 34.5 33.2346V11.776C34.5014 11.4119 34.4274 11.0512 34.282 10.7145C34.1366 10.3777 33.9228 10.0716 33.6528 9.81371C33.3829 9.55579 33.0621 9.35115 32.7088 9.21151C32.3555 9.07188 31.9768 9 31.5943 9Z" stroke="#606060" stroke-width="1.97" stroke-linecap="round" stroke-linejoin="round"/>
<path d="M34.5 28H10.5" stroke="#606060" stroke-width="1.97" stroke-linecap="round" stroke-linejoin="round"/>
<path d="M25.5 32H30.5" stroke="#6194E4" stroke-width="1.97" stroke-linecap="round" stroke-linejoin="round"/>
<path d="M15.5 32H19.5" stroke="#6194E4" stroke-width="1.97" stroke-linecap="round" stroke-linejoin="round"/>
<path d="M19.5 13H25.5" stroke="#6194E4" stroke-width="1.97" stroke-linecap="round" stroke-linejoin="round"/>
</svg>
