<svg width="45" height="46" viewBox="0 0 45 46" fill="none" xmlns="http://www.w3.org/2000/svg">
<path d="M26.3531 29.1031H21.2156C21.0441 29.1031 20.8795 29.1713 20.7582 29.2926C20.6369 29.4139 20.5688 29.5784 20.5688 29.75C20.5687 29.8345 20.5855 29.9182 20.6182 29.9961C20.6508 30.0741 20.6986 30.1448 20.7588 30.2041C20.819 30.2634 20.8904 30.3102 20.9688 30.3417C21.0472 30.3732 21.1311 30.3887 21.2156 30.3875H26.3531C26.4376 30.3887 26.5215 30.3732 26.6 30.3417C26.6784 30.3102 26.7498 30.2634 26.81 30.2041C26.8702 30.1448 26.918 30.0741 26.9506 29.9961C26.9832 29.9182 27 29.8345 27 29.75C27 29.5784 26.9319 29.4139 26.8105 29.2926C26.6892 29.1713 26.5247 29.1031 26.3531 29.1031Z" fill="#6194E4"/>
<path d="M26.3531 25.8875H21.2156C21.0441 25.8875 20.8795 25.9557 20.7582 26.077C20.6369 26.1983 20.5688 26.3628 20.5688 26.5344C20.5688 26.7059 20.6369 26.8705 20.7582 26.9918C20.8795 27.1131 21.0441 27.1812 21.2156 27.1812H26.3531C26.5247 27.1812 26.6892 27.1131 26.8105 26.9918C26.9319 26.8705 27 26.7059 27 26.5344C27 26.3628 26.9319 26.1983 26.8105 26.077C26.6892 25.9557 26.5247 25.8875 26.3531 25.8875Z" fill="#6194E4"/>
<path d="M21.2156 23.9375H26.3531C26.5247 23.9375 26.6892 23.8694 26.8105 23.748C26.9319 23.6267 27 23.4622 27 23.2906C27 23.2061 26.9832 23.1224 26.9506 23.0445C26.918 22.9665 26.8702 22.8958 26.81 22.8365C26.7498 22.7772 26.6784 22.7304 26.6 22.6989C26.5215 22.6675 26.4376 22.6519 26.3531 22.6531H21.2156C21.1311 22.6519 21.0472 22.6675 20.9688 22.6989C20.8904 22.7304 20.819 22.7772 20.7588 22.8365C20.6986 22.8958 20.6508 22.9665 20.6182 23.0445C20.5855 23.1224 20.5687 23.2061 20.5688 23.2906C20.5688 23.4622 20.6369 23.6267 20.7582 23.748C20.8795 23.8694 21.0441 23.9375 21.2156 23.9375Z" fill="#6194E4"/>
<path d="M33.4219 25.25C33.2528 25.25 33.0906 25.3172 32.9711 25.4367C32.8515 25.5563 32.7844 25.7184 32.7844 25.8875V30.3875C32.7831 30.472 32.7987 30.5559 32.8302 30.6343C32.8617 30.7128 32.9084 30.7842 32.9677 30.8444C33.0271 30.9045 33.0978 30.9523 33.1757 30.985C33.2537 31.0176 33.3374 31.0344 33.4219 31.0344C33.5934 31.0344 33.758 30.9662 33.8793 30.8449C34.0006 30.7236 34.0687 30.5591 34.0687 30.3875V25.8875C34.0663 25.7176 33.997 25.5554 33.876 25.4361C33.755 25.3168 33.5918 25.25 33.4219 25.25Z" fill="#6194E4"/>
<path d="M33.4219 22.0625C33.3374 22.0625 33.2537 22.0793 33.1757 22.1119C33.0978 22.1445 33.0271 22.1923 32.9677 22.2525C32.9084 22.3127 32.8617 22.3841 32.8302 22.4625C32.7987 22.541 32.7831 22.6249 32.7844 22.7094V23.3469C32.7831 23.4314 32.7987 23.5153 32.8302 23.5937C32.8617 23.6721 32.9084 23.7435 32.9677 23.8037C33.0271 23.8639 33.0978 23.9117 33.1757 23.9443C33.2537 23.977 33.3374 23.9938 33.4219 23.9937C33.5934 23.9937 33.758 23.9256 33.8793 23.8043C34.0006 23.683 34.0687 23.5184 34.0687 23.3469V22.7094C34.0687 22.5378 34.0006 22.3733 33.8793 22.252C33.758 22.1307 33.5934 22.0625 33.4219 22.0625Z" fill="#6194E4"/>
<path d="M37.275 11.75H10.3125C9.46043 11.7525 8.64396 12.0921 8.04145 12.6946C7.43894 13.2971 7.09936 14.1135 7.09688 14.9656V18.8844C6.36409 19.0321 5.70538 19.4299 5.2334 20.0096C4.76143 20.5893 4.5055 21.315 4.50938 22.0625V31.0625C4.51923 31.9097 4.86207 32.719 5.46378 33.3154C6.0655 33.9119 6.87777 34.2476 7.72501 34.25H34.6875C35.5396 34.2475 36.3561 33.9079 36.9586 33.3054C37.5611 32.7029 37.9007 31.8865 37.9031 31.0344V27.1156C38.6359 26.9679 39.2946 26.5701 39.7666 25.9904C40.2386 25.4107 40.4945 24.685 40.4906 23.9375V14.9375C40.4808 14.0903 40.138 13.281 39.5362 12.6846C38.9345 12.0881 38.1222 11.7524 37.275 11.75ZM5.79376 31.0344V22.0625C5.80603 21.5593 6.0152 21.081 6.37632 20.7304C6.73744 20.3798 7.22169 20.1849 7.72501 20.1875H29.5688V33.0312H7.72501C7.4654 33.0327 7.20818 32.9816 6.96889 32.8809C6.72959 32.7802 6.51317 32.6321 6.33269 32.4455C6.1522 32.2589 6.0114 32.0376 5.91878 31.7951C5.82615 31.5526 5.78362 31.2938 5.79376 31.0344ZM14.8406 16.25H15.0938L16.875 18.8188H15.3375L14.8406 16.25ZM36.6375 31.0344C36.6252 31.5375 36.4161 32.0158 36.0549 32.3664C35.6938 32.717 35.2096 32.912 34.7063 32.9094H30.8531V20.1125H34.6875C35.1908 20.1099 35.6751 20.3048 36.0362 20.6554C36.3973 21.006 36.6065 21.4843 36.6188 21.9875L36.6375 31.0344ZM39.2063 23.9375C39.2165 24.3454 39.0978 24.7461 38.8673 25.0827C38.6367 25.4193 38.3059 25.6747 37.9219 25.8125V22.0625C37.9215 21.5641 37.8053 21.0726 37.5824 20.6268C37.3595 20.181 37.036 19.7931 36.6375 19.4938V18.8469C36.6185 18.6899 36.5427 18.5454 36.4244 18.4405C36.306 18.3356 36.1534 18.2777 35.9953 18.2777C35.8372 18.2777 35.6846 18.3356 35.5663 18.4405C35.448 18.5454 35.3721 18.6899 35.3531 18.8469V18.9125C35.1399 18.8712 34.9234 18.8492 34.7063 18.8469H18.4219L15.9375 15.2469H13.875H13.8281L13.7344 15.3219C13.7344 15.3219 13.7344 15.3219 13.7344 15.3687C13.7335 15.3844 13.7335 15.4 13.7344 15.4156V15.4625V15.5188L14.0625 18.8188H12.4875L11.3906 17.7219H11.1563H10.7813H10.6969V17.8719V18.6031H8.36251V14.9656C8.37478 14.4625 8.58395 13.9842 8.94507 13.6336C9.30619 13.283 9.79044 13.088 10.2938 13.0906H32.1375V16.9438C32.1375 17.0283 32.1543 17.1119 32.1869 17.1899C32.2195 17.2679 32.2673 17.3386 32.3275 17.3979C32.3877 17.4572 32.4591 17.504 32.5375 17.5354C32.616 17.5669 32.6999 17.5825 32.7844 17.5812C32.8685 17.5825 32.9519 17.5669 33.0298 17.5353C33.1077 17.5037 33.1785 17.4568 33.238 17.3973C33.2974 17.3379 33.3443 17.2671 33.3759 17.1892C33.4075 17.1113 33.4231 17.0278 33.4219 16.9438V13.0438H37.275C37.7783 13.0411 38.2626 13.2361 38.6237 13.5867C38.9848 13.9373 39.194 14.4156 39.2063 14.9188V23.9375Z" fill="#606060"/>
<path d="M28.9219 15.6125H23.7844C23.7003 15.6112 23.6168 15.6269 23.5389 15.6584C23.461 15.69 23.3902 15.7369 23.3308 15.7964C23.2713 15.8559 23.2244 15.9266 23.1928 16.0045C23.1612 16.0825 23.1456 16.1659 23.1469 16.25C23.1456 16.3345 23.1612 16.4184 23.1927 16.4968C23.2241 16.5753 23.2709 16.6467 23.3302 16.7068C23.3896 16.767 23.4603 16.8148 23.5382 16.8475C23.6162 16.8801 23.6998 16.8969 23.7844 16.8969H28.9219C29.0934 16.8969 29.258 16.8287 29.3793 16.7074C29.5006 16.5861 29.5687 16.4216 29.5687 16.25C29.5687 16.1655 29.5519 16.0818 29.5193 16.0039C29.4867 15.9259 29.4389 15.8552 29.3787 15.7959C29.3185 15.7365 29.2471 15.6898 29.1687 15.6583C29.0903 15.6268 29.0064 15.6113 28.9219 15.6125Z" fill="#6194E4"/>
<path d="M35.9906 14.9656C35.8207 14.9681 35.6586 15.0373 35.5393 15.1584C35.42 15.2794 35.3531 15.4425 35.3531 15.6125V16.25C35.3421 16.3408 35.3505 16.433 35.3778 16.5204C35.405 16.6077 35.4505 16.6883 35.5112 16.7568C35.5719 16.8253 35.6464 16.8801 35.7299 16.9176C35.8133 16.9552 35.9038 16.9746 35.9953 16.9746C36.0868 16.9746 36.1773 16.9552 36.2608 16.9176C36.3442 16.8801 36.4187 16.8253 36.4794 16.7568C36.5401 16.6883 36.5856 16.6077 36.6129 16.5204C36.6401 16.433 36.6485 16.3408 36.6375 16.25V15.6125C36.6375 15.4409 36.5694 15.2764 36.448 15.1551C36.3267 15.0338 36.1622 14.9656 35.9906 14.9656Z" fill="#6194E4"/>
<path d="M16.3969 23.3094C16.3376 23.2195 16.2568 23.1459 16.1619 23.0951C16.0669 23.0444 15.9608 23.0181 15.8531 23.0187H8.15626C7.97972 23.0187 7.81042 23.0889 7.68559 23.2137C7.56076 23.3385 7.49063 23.5078 7.49063 23.6844V28.8781H8.34376C8.39841 29.2117 8.56983 29.5149 8.82743 29.7338C9.08502 29.9526 9.41201 30.0727 9.75001 30.0727C10.088 30.0727 10.415 29.9526 10.6726 29.7338C10.9302 29.5149 11.1016 29.2117 11.1563 28.8781H13.7156C13.7555 29.2231 13.9209 29.5414 14.1801 29.7724C14.4394 30.0034 14.7746 30.1311 15.1219 30.1311C15.4692 30.1311 15.8043 30.0034 16.0636 29.7724C16.3229 29.5414 16.4882 29.2231 16.5281 28.8781H17.5594V25.0812C17.5614 24.9766 17.5284 24.8743 17.4656 24.7906L16.3969 23.3094ZM10.9219 23.6844H13.9313V25.7H10.9219V23.6844ZM8.10938 23.6844H10.2V25.7H8.15626L8.10938 23.6844ZM9.70313 29.375C9.5548 29.375 9.40979 29.331 9.28645 29.2486C9.16312 29.1662 9.06699 29.0491 9.01022 28.912C8.95346 28.775 8.9386 28.6242 8.96754 28.4787C8.99648 28.3332 9.06791 28.1996 9.1728 28.0947C9.27769 27.9898 9.41133 27.9183 9.55681 27.8894C9.7023 27.8605 9.8531 27.8753 9.99014 27.9321C10.1272 27.9889 10.2443 28.085 10.3267 28.2083C10.4091 28.3317 10.4531 28.4767 10.4531 28.625C10.4535 28.816 10.381 29 10.2503 29.1394C10.1196 29.2788 9.94068 29.3631 9.75001 29.375H9.70313ZM15.0563 29.375C14.9079 29.375 14.7629 29.331 14.6396 29.2486C14.5162 29.1662 14.4201 29.0491 14.3633 28.912C14.3066 28.775 14.2917 28.6242 14.3207 28.4787C14.3496 28.3332 14.421 28.1996 14.5259 28.0947C14.6308 27.9898 14.7645 27.9183 14.9099 27.8894C15.0554 27.8605 15.2062 27.8753 15.3433 27.9321C15.4803 27.9889 15.5974 28.085 15.6799 28.2083C15.7623 28.3317 15.8063 28.4767 15.8063 28.625C15.8066 28.816 15.7341 29 15.6034 29.1394C15.4727 29.2788 15.2938 29.3631 15.1031 29.375H15.0563ZM16.875 28.2125H16.4813C16.3957 27.9181 16.2169 27.6595 15.9718 27.4755C15.7267 27.2915 15.4284 27.192 15.1219 27.192C14.8154 27.192 14.5171 27.2915 14.272 27.4755C14.0268 27.6595 13.8481 27.9181 13.7625 28.2125H11.1094C10.9971 27.8522 10.7465 27.5512 10.4126 27.3754C10.0787 27.1997 9.68866 27.1636 9.32813 27.275C9.10644 27.3414 8.90471 27.4618 8.74107 27.6254C8.57743 27.7891 8.45701 27.9908 8.39063 28.2125H8.15626V26.3375H16.875V28.2125ZM16.875 25.7H14.5969V23.6844H15.8531L16.875 25.1375V25.7Z" fill="#6194E4"/>
</svg>
