<svg width="41" height="40" viewBox="0 0 41 40" fill="none" xmlns="http://www.w3.org/2000/svg">
<path d="M33.4916 17.1172H26.3043C26.2673 15.7084 26.129 14.3038 25.8905 12.9133C25.6451 11.3895 25.2288 9.89554 24.6488 8.45756C24.3723 7.78462 24.0345 7.13635 23.6394 6.52028C23.3486 6.07453 23.0103 5.65901 22.63 5.28042C22.2851 4.8821 21.8531 4.56155 21.3646 4.34155C20.8761 4.12155 20.3431 4.00749 19.8035 4.00749C19.2639 4.00749 18.7309 4.12155 18.2424 4.34155C17.7539 4.56155 17.3219 4.8821 16.977 5.28042C16.5967 5.65901 16.2584 6.07453 15.9676 6.52028C15.5725 7.13635 15.2347 7.78462 14.9582 8.45756C14.3988 9.89779 14.0029 11.3917 13.7771 12.9133C13.5386 14.3038 13.4003 15.7084 13.3632 17.1172H6.17597C5.90824 17.1172 5.65149 17.2192 5.46218 17.4009C5.27287 17.5825 5.16652 17.8289 5.16652 18.0858C5.16652 18.3427 5.27287 18.5891 5.46218 18.7708C5.65149 18.9524 5.90824 19.0545 6.17597 19.0545H13.3632C13.4003 20.4632 13.5386 21.8679 13.7771 23.2583C14.0225 24.7822 14.4387 26.2761 15.0187 27.7141C15.1802 28.0919 15.3518 28.4502 15.5234 28.7893C15.6951 29.1283 15.8465 29.3801 16.0181 29.6417C16.3089 30.0874 16.6472 30.5029 17.0275 30.8815C17.3803 31.2671 17.8109 31.58 18.2932 31.8014C18.7755 32.0228 19.2996 32.1481 19.8338 32.1698H19.9549C19.8338 32.0052 19.753 31.8695 19.6925 31.7824L19.5209 31.5208L19.2483 31.3658C18.3499 30.8428 17.3707 30.2519 16.6944 29.8354L18.7638 29.7676C18.6622 29.6916 18.5676 29.6074 18.4811 29.5158C18.1816 29.2198 17.9143 28.8953 17.6837 28.5471C17.3896 28.067 17.1364 27.5649 16.9266 27.0457C16.481 25.9948 16.143 24.9048 15.9171 23.7911C15.8566 23.5296 15.8061 23.268 15.7556 22.9968C15.7051 22.7256 15.6749 22.5125 15.6446 22.2703C15.5019 21.2036 15.4244 20.1298 15.4124 19.0545H24.2552C24.2552 19.6938 24.1946 20.3331 24.134 20.9917C24.134 21.4179 24.0432 21.8344 23.9826 22.251L26.0015 22.3769C26.0621 21.9604 26.1125 21.5439 26.1529 21.1177C26.2135 20.4493 26.2539 19.7713 26.2741 19.0932H31.0689L32.3005 17.9115L32.4317 17.8049C32.7923 17.4297 33.2776 17.1866 33.8045 17.1172C33.7008 17.1025 33.5953 17.1025 33.4916 17.1172ZM15.4124 17.1172C15.4503 15.8189 15.5785 14.5245 15.796 13.2426C16.0198 11.8579 16.3988 10.5003 16.9266 9.19372C17.2717 8.26638 17.7995 7.41137 18.4811 6.67526C18.6295 6.46148 18.8306 6.28618 19.0666 6.16493C19.3026 6.04368 19.5661 5.98023 19.8338 5.98023C20.1015 5.98023 20.365 6.04368 20.601 6.16493C20.8369 6.28618 21.0381 6.46148 21.1864 6.67526C21.866 7.41649 22.3934 8.27425 22.741 9.20341C23.2681 10.5069 23.6471 11.8611 23.8716 13.2426C24.0891 14.5245 24.2173 15.8189 24.2552 17.1172H15.4124ZM34.4809 17.8727C34.4203 18.2692 34.2455 18.6416 33.9761 18.9479C34.1373 18.8655 34.2722 18.7428 34.3664 18.5927C34.4606 18.4426 34.5107 18.2707 34.5111 18.0955C34.5126 18.017 34.5024 17.9387 34.4809 17.863V17.8727ZM24.3864 28.179L22.4684 29.942L21.7013 30.6587L21.3278 31.0171V31.5208V31.8405C21.8312 31.5959 22.2857 31.268 22.6703 30.8718C23.0507 30.4933 23.389 30.0777 23.6798 29.632C24.0028 29.1299 24.2862 28.6054 24.5277 28.0628L24.3864 28.179ZM23.3769 25.06C23.2022 25.7187 22.983 26.3659 22.7208 26.9973C22.7208 27.0554 22.6703 27.1232 22.64 27.1813L22.9934 26.8326L24.447 25.4378L23.3769 25.06Z" fill="#606060"/>
<path d="M34.3299 15.9089C34.1545 14.8054 33.8427 13.7258 33.4012 12.693C31.9095 9.24296 29.0517 6.50217 25.4555 5.07279C21.8592 3.64341 17.8187 3.64235 14.2217 5.06984C10.6316 6.50732 7.78059 9.25021 6.29192 12.6989C4.80326 16.1476 4.79801 20.0216 6.27732 23.474C7.25752 25.756 8.84797 27.7495 10.888 29.253C12.9281 30.7564 15.3455 31.7167 17.8961 32.0367C18.5416 32.1224 19.1926 32.1645 19.8443 32.1626H19.9654C19.8443 31.998 19.7635 31.8624 19.703 31.7752L19.5314 31.5137L19.2588 31.3587C18.3604 30.8356 17.3812 30.2447 16.7049 29.8282L16.0286 29.6442C15.6854 29.5376 15.3422 29.4214 15.0191 29.2858C11.941 28.0565 9.49749 25.7048 8.22555 22.7475C7.68783 21.578 7.35691 20.3308 7.24639 19.057C7.18045 18.4128 7.18045 17.7639 7.24639 17.1197C7.34097 15.8591 7.65132 14.622 8.16499 13.4582C8.79818 11.9873 9.72781 10.6509 10.9006 9.52554C12.0733 8.40021 13.4661 7.50816 14.9989 6.90056C15.3321 6.76495 15.6753 6.64872 16.0084 6.54217C18.4902 5.77993 21.158 5.77993 23.6398 6.54217C23.983 6.64872 24.3262 6.76495 24.6493 6.90056C26.1821 7.50816 27.5749 8.40021 28.7476 9.52554C29.9204 10.6509 30.85 11.9873 31.4832 13.4582C31.8893 14.3883 32.1676 15.3652 32.311 16.3642C32.3612 16.6265 32.3915 16.8919 32.4018 17.1584C32.4169 17.381 32.4169 17.6042 32.4018 17.8268C32.767 17.4385 33.2645 17.1877 33.8049 17.1197H33.9664C34.1175 17.117 34.2679 17.14 34.4106 17.1875C34.4429 17.2783 34.4633 17.3727 34.4712 17.4684C34.4583 16.9462 34.4111 16.4254 34.3299 15.9089ZM34.5015 17.6621C34.506 17.7299 34.506 17.7978 34.5015 17.8655C34.4409 18.2621 34.2661 18.6345 33.9967 18.9407C33.9215 19.0414 33.837 19.1354 33.7444 19.2216L32.1898 20.7133C32.0275 21.4018 31.8047 22.0758 31.5236 22.7281C31.4126 22.98 31.3015 23.2318 31.1703 23.474L34.3198 20.4518C34.4545 19.6708 34.5187 18.88 34.5116 18.0883C34.5116 17.943 34.5116 17.8074 34.5015 17.6621ZM26.5672 28.6271L26.4764 28.3946C25.902 28.7413 25.2975 29.0394 24.6694 29.2858C24.3363 29.4214 23.9931 29.5376 23.66 29.6442C23.2752 29.7603 22.8843 29.8573 22.489 29.9348L21.7219 30.6516L21.3484 31.01V31.5137V32.0948C21.7925 32.058 22.234 31.9965 22.6707 31.9108C22.6707 31.7752 22.6707 31.6493 22.6707 31.5427L25.3559 29.063C25.5376 29.5473 25.7899 30.1963 26.0524 30.8744C26.4562 30.6903 26.8498 30.4869 27.2233 30.2738C26.9609 29.712 26.7388 29.0921 26.5672 28.6271ZM30.3526 24.8107C29.9858 25.3371 29.5774 25.8358 29.1312 26.3024C29.1312 27.116 29.2321 28.0072 29.2927 28.8693C29.6157 28.6077 29.9186 28.3365 30.2214 28.0556L30.5343 27.7747C30.4738 26.6608 30.4031 25.6147 30.3526 24.8107Z" fill="#606060"/>
<path d="M29.2415 19.0591L27.0711 21.1417L26.1828 21.0835C26.1828 21.5097 26.092 21.9263 26.0314 22.3428L26.9803 22.4009H27.5759L31.0988 19.0591H29.2415ZM23.3968 25.0453L22.5286 24.745L16.9969 22.7593L18.0063 21.9263C18.0496 21.8892 18.1015 21.8626 18.1577 21.8488H18.2082L21.9028 22.0812L24.0226 22.2168C24.0832 21.8003 24.1337 21.3838 24.174 20.9576L18.2587 20.5895H18.1577C17.7852 20.5872 17.4252 20.7184 17.1483 20.9576C16.7344 21.287 15.9269 22.0037 15.7048 22.2072C15.7048 22.4493 15.7754 22.6915 15.8158 22.9336C15.8562 23.1758 15.9168 23.4664 15.9773 23.7279C16.7243 24.0088 20.3583 25.3068 22.0946 25.9267L19.5104 28.4936H17.6833C17.914 28.8418 18.1812 29.1663 18.4808 29.4623C18.5672 29.5539 18.6618 29.6381 18.7634 29.7141H20.0454L20.4189 29.3557L22.6599 27.1375L23.0132 26.7888L24.4668 25.394L23.3968 25.0453ZM29.2415 19.0591L27.0711 21.1417L26.1828 21.0835C26.1828 21.5097 26.092 21.9263 26.0314 22.3428L26.9803 22.4009H27.5759L31.0988 19.0591H29.2415ZM23.3968 25.0453L22.5286 24.745L16.9969 22.7593L18.0063 21.9263C18.0496 21.8892 18.1015 21.8626 18.1577 21.8488H18.2082L21.9028 22.0812L24.0226 22.2168C24.0832 21.8003 24.1337 21.3838 24.174 20.9576L18.2587 20.5895H18.1577C17.7852 20.5872 17.4252 20.7184 17.1483 20.9576C16.7344 21.287 15.9269 22.0037 15.7048 22.2072C15.7048 22.4493 15.7754 22.6915 15.8158 22.9336C15.8562 23.1758 15.9168 23.4664 15.9773 23.7279C16.7243 24.0088 20.3583 25.3068 22.0946 25.9267L19.5104 28.4936H17.6833C17.914 28.8418 18.1812 29.1663 18.4808 29.4623C18.5672 29.5539 18.6618 29.6381 18.7634 29.7141H20.0454L20.4189 29.3557L22.6599 27.1375L23.0132 26.7888L24.4668 25.394L23.3968 25.0453ZM29.2415 19.0591L27.0711 21.1417L26.1828 21.0835C26.1828 21.5097 26.092 21.9263 26.0314 22.3428L26.9803 22.4009H27.5759L31.0988 19.0591H29.2415ZM23.3968 25.0453L22.5286 24.745L16.9969 22.7593L18.0063 21.9263C18.0496 21.8892 18.1015 21.8626 18.1577 21.8488H18.2082L21.9028 22.0812L24.0226 22.2168C24.0832 21.8003 24.1337 21.3838 24.174 20.9576L18.2587 20.5895H18.1577C17.7852 20.5872 17.4252 20.7184 17.1483 20.9576C16.7344 21.287 15.9269 22.0037 15.7048 22.2072C15.7048 22.4493 15.7754 22.6915 15.8158 22.9336C15.8562 23.1758 15.9168 23.4664 15.9773 23.7279C16.7243 24.0088 20.3583 25.3068 22.0946 25.9267L19.5104 28.4936H17.6833C17.914 28.8418 18.1812 29.1663 18.4808 29.4623C18.5672 29.5539 18.6618 29.6381 18.7634 29.7141H20.0454L20.4189 29.3557L22.6599 27.1375L23.0132 26.7888L24.4668 25.394L23.3968 25.0453ZM32.4212 17.1218H31.2805L29.2616 19.0591L27.0913 21.1417L26.203 21.0835L24.1841 20.9576L18.2688 20.5895H18.1678C17.7953 20.5872 17.4353 20.7184 17.1584 20.9576C16.7445 21.287 15.937 22.0037 15.7149 22.2072C15.7149 22.4493 15.7855 22.6915 15.8259 22.9336C15.8663 23.1758 15.9269 23.4664 15.9874 23.7279C16.7344 24.0088 20.3684 25.3068 22.1047 25.9267L19.5205 28.4936H16.4921C16.1618 28.479 15.8388 28.5904 15.5937 28.8036C15.7552 29.1039 15.9168 29.3945 16.0884 29.656L16.7647 29.84L16.5527 29.7141H16.6032H20.0959L20.4694 29.3557L22.7103 27.1375L23.0636 26.7888L24.5172 25.394L23.4472 25.0162L22.5791 24.7159L17.0473 22.7302L18.0568 21.8972C18.1001 21.8601 18.152 21.8336 18.2082 21.8197H18.2587L21.9533 22.0522L24.0731 22.1878L26.092 22.3137L27.0409 22.3718H27.6364L32.3909 17.8095L32.5222 17.703C32.5001 17.5076 32.4664 17.3135 32.4212 17.1218ZM24.4971 28.0771L24.3961 28.174L22.4782 29.9369C22.8734 29.8594 23.2643 29.7624 23.6491 29.6463C23.9923 29.5397 24.3355 29.4235 24.6586 29.2879C25.2866 29.0416 25.8912 28.7434 26.4655 28.3968L25.8901 26.8082L24.4971 28.0771ZM35.3789 16.3178C35.0944 16.0853 34.7417 15.9432 34.3695 15.911H34.0262C33.4454 15.9139 32.8751 16.0607 32.3707 16.3372C32.0292 16.5198 31.7165 16.7481 31.4421 17.0153L29.2415 19.0591L27.0711 21.1417L26.1828 21.0835L24.1639 20.9576L18.2486 20.5895H18.1476C17.7751 20.5872 17.4151 20.7184 17.1382 20.9576C16.7243 21.287 15.9168 22.0037 15.6947 22.2072L15.6341 22.2653C15.5189 22.3643 15.4289 22.4875 15.3711 22.6252C15.3134 22.7629 15.2894 22.9115 15.301 23.0596C15.3133 23.2041 15.371 23.3417 15.4666 23.4541C15.5621 23.5665 15.6909 23.6485 15.836 23.6892H15.9672C16.7142 23.9701 20.3482 25.2681 22.0845 25.888L19.5003 28.4549H16.472C16.1416 28.4402 15.8186 28.5517 15.5736 28.7648C15.4625 28.8326 15.3414 28.9295 15.2001 29.0361L15.1395 29.0942L15.0083 29.2395C14.8905 29.3753 14.8137 29.5394 14.7862 29.7141C14.783 29.824 14.807 29.9331 14.8561 30.0324C14.9052 30.1317 14.9781 30.2185 15.0688 30.2856C15.19 30.3825 16.5527 31.2542 17.8953 32.0195L18.5817 32.4166L20.7015 35.6712C20.7602 35.7708 20.8453 35.8536 20.9481 35.9115C21.0509 35.9693 21.1678 36 21.287 36.0006C21.5692 35.9835 21.8334 35.862 22.0239 35.6615C22.7103 34.8866 22.6195 34.567 22.6195 34.4314C22.6195 34.073 22.6195 32.7169 22.6195 31.8839C22.6195 31.7482 22.6195 31.6223 22.6195 31.5158L25.3046 29.0361C25.4863 29.5204 25.7387 30.1694 26.0011 30.8474C26.6977 32.6878 27.5254 34.8091 27.5961 34.9835C27.6404 35.1226 27.7261 35.2462 27.8427 35.3391C27.9593 35.432 28.1016 35.4902 28.2522 35.5066H28.333C28.6207 35.497 28.8929 35.3786 29.09 35.1772C29.09 35.1772 30.0389 34.2086 30.4427 33.734C30.7093 33.4436 30.847 33.0646 30.8263 32.6781C30.8263 32.591 30.6648 30.1016 30.5134 27.709C30.4528 26.6338 30.3821 25.5877 30.3317 24.8031C30.3317 24.6094 30.3317 24.4253 30.3317 24.2607L34.3089 20.4442L34.6622 20.1052C36.1865 18.6426 35.9846 16.8603 35.3789 16.3178ZM33.7234 19.2238L32.1689 20.7155L28.9689 23.7764V24.3478C28.9689 24.8612 29.0497 25.5393 29.1001 26.2851C29.1506 27.031 29.2011 27.9899 29.2616 28.852C29.2616 29.0554 29.2616 29.2588 29.2616 29.4526C29.3626 31.0702 29.4635 32.6006 29.4635 32.7363C29.4635 32.8719 29.4635 32.8428 29.3828 32.9397C29.302 33.0365 28.8276 33.5499 28.5248 33.9083L27.1317 30.2953C26.8995 29.685 26.6775 29.1136 26.5059 28.6486L26.415 28.4161L25.8901 26.8082L24.5273 28.1158L24.4264 28.2127L22.5084 29.9756L21.7413 30.6924L21.3678 31.0508V31.5545V34.3151C21.395 34.3517 21.4187 34.3906 21.4384 34.4314H21.3678V34.3442L21.2668 34.1795C20.853 33.5596 20.3381 32.7556 20.005 32.2423C19.8839 32.0776 19.8031 31.942 19.7426 31.8548L19.571 31.5933L19.2984 31.4383C18.4 30.9152 17.4208 30.3243 16.7445 29.9078L16.5527 29.7141H16.6032H20.0959L20.4694 29.3557L22.7103 27.1375L23.0636 26.7888L24.5172 25.394L23.4472 25.0162L22.5791 24.7159L17.0473 22.7302L18.0568 21.8972C18.1001 21.8601 18.152 21.8336 18.2082 21.8197H18.2587L21.9533 22.0522L24.0731 22.1878L26.092 22.3137L27.0409 22.3718H27.6364L32.3909 17.8095L32.5222 17.703C32.8747 17.3841 33.3235 17.1806 33.8042 17.1218H33.9657C34.1167 17.1191 34.2671 17.1421 34.4098 17.1896C34.4421 17.2805 34.4625 17.3748 34.4704 17.4705C34.4757 17.5253 34.4757 17.5804 34.4704 17.6352C34.4749 17.7029 34.4749 17.7709 34.4704 17.8386C34.4099 18.2351 34.235 18.6075 33.9657 18.9138C33.8951 19.0241 33.814 19.1279 33.7234 19.2238ZM23.3968 25.0356L22.5286 24.7353L16.9969 22.7496L18.0063 21.9166C18.0496 21.8795 18.1015 21.8529 18.1577 21.8391H18.2082L21.9028 22.0715L24.0226 22.2072C24.0832 21.7906 24.1337 21.3741 24.174 20.9479L18.2587 20.5798H18.1577C17.7852 20.5775 17.4252 20.7088 17.1483 20.9479C16.7344 21.2773 15.9269 21.9941 15.7048 22.1975C15.7048 22.4396 15.7754 22.6818 15.8158 22.924C15.8562 23.1661 15.9168 23.4567 15.9773 23.7182C16.7243 23.9991 20.3583 25.2971 22.0946 25.917L19.5104 28.4839H17.6833C17.914 28.8321 18.1812 29.1567 18.4808 29.4526C18.5672 29.5442 18.6618 29.6285 18.7634 29.7044H20.0454L20.4189 29.346L22.6599 27.1278L23.0132 26.7791L24.4668 25.3843L23.3968 25.0356ZM25.8901 26.8082L24.5273 28.1158L24.4264 28.2127L22.5084 29.9756C22.9037 29.8982 23.2946 29.8012 23.6794 29.685C24.0226 29.5785 24.3658 29.4623 24.6889 29.3266C25.3169 29.0803 25.9215 28.7821 26.4958 28.4355L25.8901 26.8082ZM29.2415 19.0591L27.0711 21.1417L26.1828 21.0835C26.1828 21.5097 26.092 21.9263 26.0314 22.3428L26.9803 22.4009H27.5759L31.0988 19.0591H29.2415ZM23.3968 25.0453L22.5286 24.745L16.9969 22.7593L18.0063 21.9263C18.0496 21.8892 18.1015 21.8626 18.1577 21.8488H18.2082L21.9028 22.0812L24.0226 22.2168C24.0832 21.8003 24.1337 21.3838 24.174 20.9576L18.2587 20.5895H18.1577C17.7852 20.5872 17.4252 20.7184 17.1483 20.9576C16.7344 21.287 15.9269 22.0037 15.7048 22.2072C15.7048 22.4493 15.7754 22.6915 15.8158 22.9336C15.8562 23.1758 15.9168 23.4664 15.9773 23.7279C16.7243 24.0088 20.3583 25.3068 22.0946 25.9267L19.5104 28.4936H17.6833C17.914 28.8418 18.1812 29.1663 18.4808 29.4623C18.5672 29.5539 18.6618 29.6381 18.7634 29.7141H20.0454L20.4189 29.3557L22.6599 27.1375L23.0132 26.7888L24.4668 25.394L23.3968 25.0453ZM29.2415 19.0591L27.0711 21.1417L26.1828 21.0835C26.1828 21.5097 26.092 21.9263 26.0314 22.3428L26.9803 22.4009H27.5759L31.0988 19.0591H29.2415ZM23.3968 25.0453L22.5286 24.745L16.9969 22.7593L18.0063 21.9263C18.0496 21.8892 18.1015 21.8626 18.1577 21.8488H18.2082L21.9028 22.0812L24.0226 22.2168C24.0832 21.8003 24.1337 21.3838 24.174 20.9576L18.2587 20.5895H18.1577C17.7852 20.5872 17.4252 20.7184 17.1483 20.9576C16.7344 21.287 15.9269 22.0037 15.7048 22.2072C15.7048 22.4493 15.7754 22.6915 15.8158 22.9336C15.8562 23.1758 15.9168 23.4664 15.9773 23.7279C16.7243 24.0088 20.3583 25.3068 22.0946 25.9267L19.5104 28.4936H17.6833C17.914 28.8418 18.1812 29.1663 18.4808 29.4623C18.5672 29.5539 18.6618 29.6381 18.7634 29.7141H20.0454L20.4189 29.3557L22.6599 27.1375L23.0132 26.7888L24.4668 25.394L23.3968 25.0453ZM29.2415 19.0591L27.0711 21.1417L26.1828 21.0835C26.1828 21.5097 26.092 21.9263 26.0314 22.3428L26.9803 22.4009H27.5759L31.0988 19.0591H29.2415ZM23.3968 25.0453L22.5286 24.745L16.9969 22.7593L18.0063 21.9263C18.0496 21.8892 18.1015 21.8626 18.1577 21.8488H18.2082L21.9028 22.0812L24.0226 22.2168C24.0832 21.8003 24.1337 21.3838 24.174 20.9576L18.2587 20.5895H18.1577C17.7852 20.5872 17.4252 20.7184 17.1483 20.9576C16.7344 21.287 15.9269 22.0037 15.7048 22.2072C15.7048 22.4493 15.7754 22.6915 15.8158 22.9336C15.8562 23.1758 15.9168 23.4664 15.9773 23.7279C16.7243 24.0088 20.3583 25.3068 22.0946 25.9267L19.5104 28.4936H17.6833C17.914 28.8418 18.1812 29.1663 18.4808 29.4623C18.5672 29.5539 18.6618 29.6381 18.7634 29.7141H20.0454L20.4189 29.3557L22.6599 27.1375L23.0132 26.7888L24.4668 25.394L23.3968 25.0453ZM29.2415 19.0591L27.0711 21.1417L26.1828 21.0835C26.1828 21.5097 26.092 21.9263 26.0314 22.3428L26.9803 22.4009H27.5759L31.0988 19.0591H29.2415ZM29.2415 19.0591L27.0711 21.1417L26.1828 21.0835C26.1828 21.5097 26.092 21.9263 26.0314 22.3428L26.9803 22.4009H27.5759L31.0988 19.0591H29.2415ZM23.3968 25.0453C23.222 25.704 23.0029 26.3511 22.7406 26.9825C22.7406 27.0407 22.6901 27.1085 22.6599 27.1666L23.0132 26.8179L24.4668 25.423L23.3968 25.0453Z" fill="#445E91"/>
</svg>
