<svg width="31" height="31" viewBox="0 0 31 31" fill="none" xmlns="http://www.w3.org/2000/svg">
<path d="M26.2087 7.23652C25.59 6.09427 24.7253 5.15133 23.6967 4.49732C22.6682 3.84332 21.5099 3.5 20.332 3.5C19.1542 3.5 17.9959 3.84332 16.9673 4.49732C15.9388 5.15133 15.074 6.09427 14.4554 7.23652C14.2189 7.66757 14.0189 8.12331 13.8583 8.59756C13.6747 9.13425 13.5451 9.6929 13.4719 10.2628L14.4905 11.2876C14.4927 10.6771 14.5731 10.0702 14.7294 9.48624C14.8864 8.92295 15.106 8.38484 15.3827 7.88502C16.1381 6.56858 17.277 5.5983 18.5987 5.14522C19.9204 4.69214 21.3401 4.78535 22.6074 5.40841C23.8747 6.03147 24.9083 7.14438 25.526 8.55097C26.1437 9.95755 26.3058 11.5675 25.9839 13.097C25.8764 13.5191 25.7353 13.9291 25.5623 14.3219L25.457 14.5701C25.636 14.7833 25.7642 15.0451 25.8293 15.3307C25.8813 15.5478 25.8951 15.7745 25.8698 15.9977C25.8446 16.221 25.7808 16.4363 25.6822 16.6313C25.5836 16.8263 25.4521 16.9971 25.2953 17.1339C25.1384 17.2707 24.9594 17.3707 24.7685 17.4283L24.1081 17.6285L23.3143 19.5019L20.3145 26.3231L18.0032 21.1031L17.392 19.71L16.3522 20.0303L16.9634 21.4234L19.4082 26.8435C19.4978 27.0403 19.6328 27.2054 19.7987 27.3211C19.9646 27.4368 20.1551 27.4987 20.3496 27.5C20.544 27.4982 20.7341 27.4352 20.899 27.3179C21.0639 27.2007 21.1971 27.0337 21.284 26.8355L24.6982 19.0616L26.5248 14.8904C26.6378 14.6318 26.734 14.3643 26.8128 14.0898C27.1825 12.9717 27.3203 11.7713 27.2155 10.5824C27.1107 9.3936 26.7661 8.24847 26.2087 7.23652Z" fill="#606060"/>
<path d="M23.2294 11.3362C23.0902 11.3341 22.9572 11.2702 22.8588 11.158C22.7604 11.0459 22.7043 10.8943 22.7025 10.7357C22.72 10.3675 22.6716 9.99896 22.56 9.65274C22.4484 9.30653 22.2761 8.98986 22.0535 8.72207C21.831 8.45429 21.5629 8.241 21.2656 8.09524C20.9683 7.94949 20.6481 7.87431 20.3244 7.87431C20.0008 7.87431 19.6805 7.94949 19.3832 8.09524C19.0859 8.241 18.8178 8.45429 18.5953 8.72207C18.3727 8.98986 18.2004 9.30653 18.0888 9.65274C17.9773 9.99896 17.9288 10.3675 17.9464 10.7357C17.9464 10.895 17.8909 11.0477 17.792 11.1603C17.6932 11.2729 17.5592 11.3362 17.4195 11.3362C17.2797 11.3362 17.1457 11.2729 17.0469 11.1603C16.9481 11.0477 16.8926 10.895 16.8926 10.7357C16.8716 10.2073 16.9448 9.6794 17.1078 9.18406C17.2708 8.68872 17.5202 8.23617 17.841 7.85373C18.1617 7.47129 18.5471 7.1669 18.974 6.95893C19.4008 6.75097 19.8602 6.64375 20.3244 6.64375C20.7886 6.64375 21.248 6.75097 21.6749 6.95893C22.1017 7.1669 22.4871 7.47129 22.8079 7.85373C23.1286 8.23617 23.378 8.68872 23.541 9.18406C23.704 9.6794 23.7772 10.2073 23.7563 10.7357C23.7563 10.895 23.7007 11.0477 23.6019 11.1603C23.5031 11.2729 23.3691 11.3362 23.2294 11.3362Z" fill="#606060"/>
<path d="M27.1359 14.9703C27.0704 14.6664 26.9612 14.3769 26.8127 14.1137C26.6118 13.704 26.3275 13.3553 25.9837 13.0969C25.6424 12.8315 25.2538 12.6551 24.8458 12.5804C24.4378 12.5057 24.0204 12.5344 23.6232 12.6646L19.0568 14.0817L14.7012 9.48615L13.8581 8.58947L13.0362 7.73281C12.751 7.43433 12.4064 7.21933 12.0321 7.10635C11.6577 6.99337 11.2649 6.98579 10.8875 7.08427C10.51 7.18275 10.1592 7.38433 9.86533 7.67165C9.57143 7.95897 9.34323 8.32341 9.20039 8.73358C9.06473 9.13222 9.01312 9.56159 9.04973 9.98712C9.08633 10.4126 9.21013 10.8224 9.41115 11.1835L12.2212 16.1713L9.5938 16.9719L8.13255 15.3146C7.82178 14.9691 7.43781 14.7211 7.018 14.5948C6.5982 14.4686 6.15686 14.4683 5.73694 14.5941L3.79797 15.1865L3.25 15.3306L3.76987 16.4034L6.27086 21.5514C6.57494 22.1712 7.01823 22.6877 7.55526 23.0479C8.09229 23.408 8.70372 23.5989 9.32684 23.6009C9.64538 23.6205 9.96474 23.5882 10.2753 23.5049L11.2166 23.2166L17.0195 21.4473L18.003 21.103L23.293 19.5018L24.6559 19.0855L25.0915 18.9494C25.4522 18.8401 25.7902 18.65 26.0857 18.3902C26.3812 18.1304 26.6284 17.8061 26.8127 17.4362C27.0111 17.072 27.1422 16.6654 27.1977 16.2413C27.2533 15.8173 27.2323 15.3848 27.1359 14.9703ZM24.108 17.6604L17.4129 19.6939L16.3732 20.0142L10.8373 21.7035L9.89589 21.9917C9.71264 22.0484 9.52375 22.078 9.33387 22.0798C8.95216 22.0755 8.57822 21.9563 8.25003 21.7341C7.92183 21.5119 7.65104 21.1948 7.46515 20.8148L5.23815 16.2994L6.0601 16.0512C6.25532 15.9919 6.46083 15.9925 6.65578 16.0529C6.85073 16.1134 7.02817 16.2316 7.17009 16.3954L8.7016 18.1167C8.84726 18.2793 9.02719 18.3963 9.22406 18.4566C9.42093 18.5169 9.6281 18.5184 9.82563 18.461L14.3007 17.1L10.5492 10.3748C10.4592 10.2184 10.4029 10.0398 10.3851 9.85379C10.3672 9.66777 10.3883 9.47958 10.4466 9.30463C10.5048 9.12968 10.5986 8.97294 10.7202 8.84724C10.8419 8.72155 10.9879 8.63047 11.1464 8.58146C11.2349 8.5669 11.3248 8.5669 11.4133 8.58146C11.6727 8.58687 11.9218 8.69759 12.1159 8.8937L13.4507 10.3028L14.4904 11.2875L18.263 15.2906C18.4056 15.4421 18.5799 15.5496 18.7692 15.6028C18.9586 15.656 19.1567 15.6533 19.3449 15.5948L24.0166 14.1617C24.4042 14.0473 24.8157 14.1129 25.1609 14.3441C25.506 14.5753 25.7565 14.9531 25.8573 15.3947C25.9093 15.6118 25.923 15.8385 25.8978 16.0617C25.8725 16.2849 25.8088 16.5002 25.7102 16.6952C25.6115 16.8902 25.48 17.061 25.3232 17.1978C25.1664 17.3346 24.9874 17.4347 24.7964 17.4923L24.108 17.6604Z" fill="#445E91"/>
</svg>
